<?xml version="1.0" encoding="UTF-8" standalone="no"?><!DOCTYPE svg PUBLIC "-//W3C//DTD SVG 1.1//EN" "http://www.w3.org/Graphics/SVG/1.1/DTD/svg11.dtd"><svg width="100%" height="100%" viewBox="0 0 15459 15459" version="1.1" xmlns="http://www.w3.org/2000/svg" xmlns:xlink="http://www.w3.org/1999/xlink" xml:space="preserve" xmlns:serif="http://www.serif.com/" style="fill-rule:evenodd;clip-rule:evenodd;stroke-linejoin:round;stroke-miterlimit:2;"><g><path d="M7969.42,13497.4c-689,-0 -1215.38,-96.333 -1425.29,-138.958c-761.333,-154.667 -2233,-453.542 -3297.01,-1704.79c-1609.73,-1893 -1359.07,-4875.38 -110.45,-6844.08c129.595,-204.334 574.087,-936.271 1382.42,-1589.83c-3.5,16.388 -6.708,32.813 -9.541,49.23c-2.875,16.512 8.166,32.187 24.666,35.062c1.75,0.308 3.501,0.455 5.209,0.455c14.458,-0 27.25,-10.409 29.833,-25.113c7.042,-40.621 16.25,-81.292 27.416,-121.229c433.209,-337.705 965.459,-648.833 1604.04,-847.808c12.999,4.416 25.874,9.029 38.499,13.795c3.5,1.317 7.084,1.938 10.625,1.938c12.292,-0 23.834,-7.492 28.417,-19.617c2.5,-6.588 2.542,-13.5 0.584,-19.738c234.166,-68.653 482.333,-122.187 744.708,-156.483c243.375,-31.812 493.583,-47.896 747,-47.896c684.041,0 1393,117.042 2064.17,357.417c-85.168,153.721 -130.417,339.125 -118.001,554.946c22.417,390.563 163.625,703.458 296.251,915.992c-81.792,37.412 -166.917,77.204 -255.417,119.458c-1028.33,490.959 -1711.92,1500.62 -979.709,1500.62c17,-0 34.709,-0.542 53.292,-1.667c78.083,-4.666 149.542,-6.874 214.917,-6.874c599.916,-0 687.792,186.291 713.833,372.541c26.042,186.25 -9.708,372.541 342.709,372.541c10.958,0 22.249,-0.166 33.958,-0.541c779.166,-24.292 1970.54,-185.583 2787.25,-959.292c1011.83,2278.96 579.667,5174.42 -759.501,6584.25c-233.291,245.625 -454.041,404.042 -628.457,529.167c-1215.42,872.083 -2563.21,1076.5 -3566.42,1076.5Zm-4337.32,-6376c-4.867,0 -9.604,0.709 -14.104,2.083c-17.854,5.376 -31.838,20.792 -34.471,40.5c-3.6,26.834 15.258,51.542 42.125,55.167c55.029,7.333 111.137,12.416 166.733,15c0.788,0.041 1.567,0.083 2.346,0.083c26.046,0 47.75,-20.5 48.979,-46.791c1.279,-27.042 -19.646,-50.042 -46.712,-51.292c-52.788,-2.5 -106.063,-7.291 -158.317,-14.292c-2.213,-0.333 -4.408,-0.458 -6.579,-0.458Zm589.279,-13.417c-2.875,0 -5.75,0.292 -8.708,0.792c-52.017,9.333 -105.038,16.541 -157.571,21.417c-3.35,0.333 -6.588,1 -9.688,1.916c-21.875,6.625 -36.825,27.875 -34.621,51.501c2.359,25.458 23.755,44.541 48.821,44.541c1.513,0 3.046,-0.083 4.588,-0.209c55.275,-5.124 111.054,-12.749 165.804,-22.541c26.75,-4.666 44.417,-30.292 39.667,-57c-4.292,-23.708 -24.959,-40.417 -48.292,-40.417Zm-925.229,-63.083c-4.85,0 -9.617,0.75 -14.158,2.125c-14.867,4.5 -27.371,15.917 -32.53,31.834c-8.383,25.749 5.729,53.458 31.505,61.833c25.32,8.208 51.216,16.041 77,23.291c4.45,1.25 8.929,1.876 13.333,1.876c21.429,-0 41.117,-14.209 47.183,-35.876c7.334,-26.083 -7.896,-53.166 -33.983,-60.499c-24.513,-6.876 -49.138,-14.334 -73.2,-22.167c-5.034,-1.625 -10.134,-2.417 -15.15,-2.417Zm1335.1,-58.417c-4.708,0 -9.458,0.667 -14.125,2.084c-1.667,0.5 -3.333,1.125 -4.958,1.792c-48.584,20.499 -98.667,39.208 -148.917,55.541c-25.792,8.375 -39.875,36.042 -31.5,61.833c6.75,20.75 25.958,33.917 46.666,33.917c4.667,-0 9.459,-0.667 14.167,-2.083l1,-0.334c52.917,-17.166 105.667,-36.874 156.75,-58.458c24.958,-10.542 36.667,-39.334 26.125,-64.292c-7.917,-18.75 -26.083,-30 -45.208,-30Zm372.417,-209.541c-4.75,-0 -9.5,0.667 -14.125,2.083c-5.084,1.542 -10,3.958 -14.542,7.208c-42.75,30.876 -87.375,60.292 -132.667,87.375c-23.25,13.917 -30.833,44.084 -16.916,67.333c9.208,15.334 25.458,23.792 42.125,23.792c8.583,0 17.291,-2.208 25.208,-6.916c47.666,-28.542 94.667,-59.5 139.708,-92c21.959,-15.875 26.917,-46.542 11.042,-68.542c-9.583,-13.292 -24.583,-20.333 -39.833,-20.333Zm316.291,-287.417c-4.833,-0 -9.666,0.708 -14.291,2.125c-8.459,2.542 -16.334,7.417 -22.625,14.583c-34.834,39.625 -71.834,78.25 -109.917,114.792c-19.583,18.792 -20.209,49.875 -1.459,69.375c9.667,10.084 22.542,15.125 35.417,15.125c12.25,0 24.458,-4.542 34,-13.667c40.084,-38.458 79,-79.124 115.667,-120.833c17.917,-20.375 15.916,-51.375 -4.458,-69.292c-9.292,-8.167 -20.833,-12.208 -32.334,-12.208Zm244.709,-350.5c-4.875,0 -9.667,0.708 -14.25,2.125c-11.917,3.583 -22.501,11.708 -28.917,23.542c-25.167,46.291 -52.708,92.166 -81.833,136.333c-14.917,22.625 -8.626,53.042 14,67.959c8.291,5.5 17.666,8.124 26.958,8.124c15.959,0 31.584,-7.792 41,-22.083c30.625,-46.458 59.583,-94.75 86.083,-143.458c12.959,-23.792 4.167,-53.626 -19.666,-66.542c-7.417,-4.083 -15.458,-6 -23.375,-6Zm161.042,-396.041c-4.834,-0 -9.584,0.708 -14.126,2.083c-15.499,4.708 -28.375,16.958 -33.083,33.708c-14.333,50.834 -31,101.667 -49.584,151.041c-9.541,25.376 3.292,53.709 28.626,63.251c5.708,2.125 11.541,3.125 17.249,3.125c19.876,-0 38.584,-12.126 46.001,-31.792c19.542,-52 37.125,-105.5 52.166,-159.042c7.334,-26.083 -7.833,-53.166 -33.916,-60.5c-4.458,-1.25 -8.959,-1.874 -13.333,-1.874Zm68.832,-422.001c-4.916,0 -9.666,0.75 -14.166,2.084c-19.292,5.833 -33.791,23.292 -34.833,44.625c-2.542,52.708 -7.459,105.916 -14.542,158.208c-3.666,26.875 15.166,51.584 42.042,55.25c2.208,0.292 4.416,0.417 6.583,0.417c24.167,-0 45.25,-17.834 48.625,-42.459c7.458,-55.083 12.625,-111.167 15.333,-166.625c1.334,-27.083 -19.541,-50.083 -46.625,-51.416c-0.792,-0.042 -1.625,-0.084 -2.417,-0.084Zm-27.124,-426.542c-2.875,0 -5.75,0.251 -8.667,0.751c-1.917,0.374 -3.792,0.791 -5.667,1.374c-23.458,7.084 -38.458,30.793 -34.083,55.501c9.25,52.125 16.375,105.083 21.125,157.542c2.333,25.457 23.75,44.624 48.833,44.624c1.5,0 3,-0.041 4.501,-0.166c27.083,-2.583 46.875,-26.376 44.416,-53.334c-5,-55.208 -12.5,-110.958 -22.208,-165.792c-4.209,-23.791 -24.917,-40.5 -48.25,-40.5Zm336.708,-189.957c-2.375,-0 -4.834,0.291 -7.25,0.874c-6.459,1.625 -12.917,3.125 -19.541,4.625c-43.626,9.959 -88.001,17.626 -131.876,22.834c-1.833,0.208 -3.583,0.583 -5.25,1.083c-13.833,4.166 -23.041,17.75 -21.291,32.541c1.791,15.417 14.875,26.751 30.041,26.751c1.167,0 2.375,-0.042 3.584,-0.208c46.041,-5.417 92.541,-13.459 138.125,-23.875c6.958,-1.542 13.833,-3.167 20.708,-4.876c16.292,-3.499 26.208,-20.375 22.167,-36.666c-3.375,-13.834 -15.792,-23.083 -29.417,-23.083Zm-457.5,-220.167c-4.708,-0 -9.458,0.666 -14.125,2.083c-1.625,0.5 -3.25,1.042 -4.875,1.75c-25,10.5 -36.709,39.25 -26.208,64.25c20.375,48.542 38.958,98.708 55.25,149.084c6.708,20.75 25.958,33.999 46.667,33.999c4.708,0 9.457,-0.708 14.208,-2.125l0.917,-0.292c25.791,-8.291 39.916,-35.957 31.583,-61.749c-17.125,-53.042 -36.667,-105.834 -58.167,-156.959c-7.875,-18.75 -26.083,-30.041 -45.25,-30.041Zm751.667,108.541c-2.917,0 -5.834,0.417 -8.709,1.292c-1.833,0.542 -3.666,1.291 -5.458,2.209c-45.042,23.875 -92.208,45.166 -140.208,63.375c-15.625,5.958 -23.5,23.458 -17.542,39.124c4.584,12.125 16.125,19.458 28.417,19.458c3.541,0 7.166,-0.583 10.666,-1.875c50.292,-19.124 99.75,-41.458 147.042,-66.499c14.792,-7.833 20.417,-26.167 12.625,-40.959c-5.458,-10.25 -15.959,-16.125 -26.833,-16.125Zm257.667,-180.333c-2.917,0 -5.876,0.417 -8.751,1.292c-4.125,1.25 -8.083,3.416 -11.541,6.5c-37.959,34.292 -78.417,66.542 -120.251,95.792c-13.708,9.582 -17.041,28.499 -7.458,42.208c5.917,8.416 15.292,12.917 24.834,12.917c6,-0 12.083,-1.751 17.375,-5.459c43.874,-30.667 86.333,-64.5 126.166,-100.459c12.417,-11.249 13.375,-30.375 2.167,-42.791c-6,-6.625 -14.25,-10 -22.541,-10Zm205.832,-237.917c-2.958,-0 -5.916,0.417 -8.791,1.292c-6.458,1.958 -12.333,6.083 -16.417,12.125c-28.5,42.542 -59.875,83.666 -93.333,122.333c-10.917,12.667 -9.542,31.792 3.125,42.75c5.75,4.958 12.791,7.417 19.833,7.417c8.501,0 16.917,-3.542 22.917,-10.5c35.042,-40.542 67.958,-83.667 97.833,-128.25c9.334,-13.875 5.625,-32.708 -8.291,-42.042c-5.167,-3.458 -11.042,-5.125 -16.876,-5.125Zm141.917,-280.9c-2.999,-0 -5.958,0.442 -8.75,1.292c-8.875,2.683 -16.416,9.375 -19.791,18.775c-17.334,48.209 -37.792,95.8 -60.875,141.351c-7.542,14.957 -1.542,33.186 13.375,40.732c4.374,2.213 9.042,3.259 13.667,3.259c11.041,-0 21.749,-6.063 27.083,-16.613c24.166,-47.808 45.625,-97.671 63.791,-148.237c5.667,-15.75 -2.541,-33.121 -18.291,-38.784c-3.375,-1.203 -6.834,-1.775 -10.209,-1.775Zm69.042,-307.087c-3.042,-0 -5.958,0.445 -8.75,1.292c-11.417,3.441 -20.208,13.487 -21.458,26.075c-4.917,50.908 -13.167,102.028 -24.375,151.987c-3.667,16.316 6.583,32.545 22.916,36.209c2.25,0.507 4.5,0.749 6.709,0.749c13.875,0 26.333,-9.554 29.5,-23.662c11.791,-52.379 20.416,-106.025 25.624,-159.392c1.584,-16.658 -10.583,-31.504 -27.249,-33.121c-0.958,-0.092 -1.959,-0.137 -2.917,-0.137Zm-2588.46,-174.925c-4.834,-0 -9.625,0.725 -14.167,2.1c-14.75,4.458 -27.208,15.809 -32.416,31.583c-8.501,25.738 5.458,53.501 31.166,61.988c23.958,7.925 48.208,16.499 72.083,25.496c5.708,2.153 11.542,3.171 17.292,3.171c19.833,-0 38.5,-12.13 45.917,-31.784c9.583,-25.358 -3.25,-53.671 -28.625,-63.225c-25.084,-9.475 -50.625,-18.504 -75.875,-26.846c-5.084,-1.684 -10.25,-2.483 -15.375,-2.483Zm2579.92,-139.7c-1.499,-0 -3,0.113 -4.542,0.345c-1.458,0.221 -2.874,0.567 -4.249,0.976c-14.209,4.292 -23.458,18.458 -21.167,33.541c7.667,50.646 12.292,102.222 13.708,153.28c0.459,16.462 13.917,29.474 30.292,29.474c0.25,0 0.542,-0.004 0.833,-0.012c16.625,-0.483 29.917,-14.384 29.459,-31.125c-1.459,-53.52 -6.292,-107.591 -14.375,-160.696c-2.25,-15.021 -15.209,-25.783 -29.959,-25.783Zm-84.666,-303.1c-2.917,0 -5.834,0.42 -8.75,1.292c-0.959,0.295 -1.959,0.654 -2.917,1.037c-15.459,6.458 -22.75,24.196 -16.292,39.65c16.25,39.005 30.667,79.288 42.876,119.725c2.583,8.525 5.083,17.117 7.499,25.758c3.75,13.379 15.917,22.15 29.167,22.15c2.708,0 5.458,-0.362 8.167,-1.125c15.083,-4.862 25.542,-21.225 21.041,-37.367c-2.541,-9.037 -5.125,-18.024 -7.833,-26.95c-12.792,-42.387 -27.958,-84.624 -45,-125.521c-4.833,-11.633 -16.125,-18.649 -27.958,-18.649Zm-109.084,-206.059c-2.958,0 -5.875,0.426 -8.749,1.292c-2.709,0.817 -5.334,2.016 -7.834,3.634c-14,9.179 -17.958,27.958 -8.792,41.953c13.417,20.559 26.417,41.772 38.583,63.084c5.584,9.787 15.834,15.313 26.334,15.313c5.083,-0 10.25,-1.296 15,-4.029c14.542,-8.317 19.583,-26.817 11.292,-41.351c-12.792,-22.358 -26.375,-44.62 -40.459,-66.158c-5.833,-8.904 -15.5,-13.738 -25.375,-13.738Z" style="fill:url(#_Linear1);"/><path d="M3794.72,7234.21c-0.779,0 -1.558,-0.042 -2.346,-0.083c-55.596,-2.584 -111.704,-7.667 -166.733,-15c-26.867,-3.625 -45.725,-28.333 -42.125,-55.167c2.633,-19.708 16.617,-35.124 34.471,-40.5c4.5,-1.374 9.237,-2.083 14.104,-2.083c2.171,0 4.366,0.125 6.579,0.458c52.254,7.001 105.529,11.792 158.317,14.292c27.066,1.25 47.991,24.25 46.712,51.292c-1.229,26.291 -22.933,46.791 -48.979,46.791Zm264.883,-6.083c-25.066,-0 -46.462,-19.083 -48.821,-44.541c-2.204,-23.626 12.746,-44.876 34.621,-51.501c3.1,-0.916 6.338,-1.583 9.688,-1.916c52.533,-4.876 105.554,-12.084 157.571,-21.417c2.958,-0.5 5.833,-0.792 8.708,-0.792c23.333,0 44,16.709 48.292,40.417c4.75,26.708 -12.917,52.334 -39.667,57c-54.75,9.792 -110.529,17.417 -165.804,22.541c-1.542,0.126 -3.075,0.209 -4.588,0.209Zm418.808,-86.5c-20.708,-0 -39.916,-13.167 -46.666,-33.917c-8.375,-25.791 5.708,-53.458 31.5,-61.833c50.25,-16.333 100.333,-35.042 148.917,-55.541c1.625,-0.667 3.291,-1.292 4.958,-1.792c4.667,-1.417 9.417,-2.084 14.125,-2.084c19.125,0 37.291,11.25 45.208,30c10.542,24.958 -1.167,53.75 -26.125,64.292c-51.083,21.584 -103.833,41.292 -156.75,58.458l-1,0.334c-4.708,1.416 -9.5,2.083 -14.167,2.083Zm389.126,-176.917c-16.667,0 -32.917,-8.458 -42.125,-23.792c-13.917,-23.249 -6.334,-53.416 16.916,-67.333c45.292,-27.083 89.917,-56.499 132.667,-87.375c4.542,-3.25 9.458,-5.666 14.542,-7.208c4.625,-1.416 9.375,-2.083 14.125,-2.083c15.25,-0 30.25,7.041 39.833,20.333c15.875,22 10.917,52.667 -11.042,68.542c-45.041,32.5 -92.042,63.458 -139.708,92c-7.917,4.708 -16.625,6.916 -25.208,6.916Zm339.541,-259.208c-12.875,0 -25.75,-5.041 -35.417,-15.125c-18.75,-19.5 -18.124,-50.583 1.459,-69.375c38.083,-36.542 75.083,-75.167 109.917,-114.792c6.291,-7.166 14.166,-12.041 22.625,-14.583c4.625,-1.417 9.458,-2.125 14.291,-2.125c11.501,-0 23.042,4.041 32.334,12.208c20.374,17.917 22.375,48.917 4.458,69.292c-36.667,41.709 -75.583,82.375 -115.667,120.833c-9.542,9.125 -21.75,13.667 -34,13.667Zm273.542,-328.417c-9.292,0 -18.667,-2.624 -26.958,-8.124c-22.626,-14.917 -28.917,-45.334 -14,-67.959c29.125,-44.167 56.666,-90.042 81.833,-136.333c6.416,-11.834 17,-19.959 28.917,-23.542c4.583,-1.417 9.375,-2.125 14.25,-2.125c7.917,0 15.958,1.917 23.375,6c23.833,12.916 32.625,42.75 19.666,66.542c-26.5,48.708 -55.458,97 -86.083,143.458c-9.416,14.291 -25.041,22.083 -41,22.083Zm194.166,-380.916c-5.708,-0 -11.541,-1 -17.249,-3.125c-25.334,-9.542 -38.167,-37.875 -28.626,-63.251c18.584,-49.374 35.251,-100.207 49.584,-151.041c4.708,-16.75 17.584,-29 33.083,-33.708c4.542,-1.375 9.292,-2.083 14.126,-2.083c4.374,-0 8.875,0.624 13.333,1.874c26.083,7.334 41.25,34.417 33.916,60.5c-15.041,53.542 -32.624,107.042 -52.166,159.042c-7.417,19.666 -26.125,31.792 -46.001,31.792Zm104.834,-414.625c-2.167,-0 -4.375,-0.125 -6.583,-0.417c-26.876,-3.666 -45.708,-28.375 -42.042,-55.25c7.083,-52.292 12,-105.5 14.542,-158.208c1.042,-21.333 15.541,-38.792 34.833,-44.625c4.5,-1.334 9.25,-2.084 14.166,-2.084c0.792,0 1.625,0.042 2.417,0.084c27.084,1.333 47.959,24.333 46.625,51.416c-2.708,55.458 -7.875,111.542 -15.333,166.625c-3.375,24.625 -24.458,42.459 -48.625,42.459Zm9.333,-427.334c-25.083,0 -46.5,-19.167 -48.833,-44.624c-4.75,-52.459 -11.875,-105.417 -21.125,-157.542c-4.375,-24.708 10.625,-48.417 34.083,-55.501c1.875,-0.583 3.75,-1 5.667,-1.374c2.917,-0.5 5.792,-0.751 8.667,-0.751c23.333,0 44.041,16.709 48.25,40.5c9.708,54.834 17.208,110.584 22.208,165.792c2.459,26.958 -17.333,50.751 -44.416,53.334c-1.501,0.125 -3.001,0.166 -4.501,0.166Zm-85.624,-418.75c-20.709,0 -39.959,-13.249 -46.667,-33.999c-16.292,-50.376 -34.875,-100.542 -55.25,-149.084c-10.501,-25 1.208,-53.75 26.208,-64.25c1.625,-0.708 3.25,-1.25 4.875,-1.75c4.667,-1.417 9.417,-2.083 14.125,-2.083c19.167,-0 37.375,11.291 45.25,30.041c21.5,51.125 41.042,103.917 58.167,156.959c8.333,25.792 -5.792,53.458 -31.583,61.749l-0.917,0.292c-4.751,1.417 -9.5,2.125 -14.208,2.125Z" style="fill:url(#_Linear2);"/><path d="M3371.3,7165.83c-4.404,-0 -8.883,-0.626 -13.333,-1.876c-25.784,-7.25 -51.68,-15.083 -77,-23.291c-25.776,-8.375 -39.888,-36.084 -31.505,-61.833c5.159,-15.917 17.663,-27.334 32.53,-31.834c4.541,-1.375 9.308,-2.125 14.158,-2.125c5.016,0 10.116,0.792 15.15,2.417c24.062,7.833 48.687,15.291 73.2,22.167c26.087,7.333 41.317,34.416 33.983,60.499c-6.066,21.667 -25.754,35.876 -47.183,35.876Z" style="fill:url(#_Linear3);"/><path d="M2202.58,6231.5c-17.487,0 -34.362,-9.375 -43.216,-25.833c-12.688,-23.626 -25.029,-47.751 -36.671,-71.709c-11.842,-24.374 -1.675,-53.75 22.7,-65.583c2.391,-1.167 4.842,-2.084 7.304,-2.833c4.654,-1.417 9.404,-2.084 14.108,-2.084c18.2,0 35.688,10.167 44.18,27.626c11.045,22.75 22.762,45.666 34.816,68.082c12.838,23.875 3.896,53.626 -19.971,66.459c-7.425,4 -15.4,5.875 -23.25,5.875Z" style="fill:#d8e0fc;fill-rule:nonzero;"/><path d="M2068.77,5920c-20.563,0 -39.496,-13.5 -46.208,-34.083c-4.492,-13.792 -8.834,-27.584 -13.042,-41.542c-11.613,-38.417 -22.2,-77.792 -31.463,-116.958c-6.012,-25.375 8.879,-50.792 33.513,-58.25c0.962,-0.292 1.946,-0.542 2.937,-0.792c3.8,-0.875 7.605,-1.333 11.342,-1.333c22.233,0 42.375,15.208 47.708,37.791c8.817,37.251 18.875,74.626 29.921,111.167c3.992,13.25 8.142,26.416 12.4,39.459c8.396,25.791 -5.683,53.499 -31.458,61.874c-5.204,1.834 -10.479,2.667 -15.65,2.667Zm-85.854,-411.959c-24.959,0 -46.313,-18.958 -48.784,-44.291c-5.32,-54.458 -8.375,-109.75 -9.079,-164.375c-0.287,-22.375 14.45,-41.459 34.858,-47.625c4.305,-1.291 8.859,-2 13.58,-2.084l0.654,0c26.8,0 48.7,21.584 49.046,48.417c0.679,51.875 3.575,104.376 8.629,156.125c2.629,27 -17.188,50.959 -44.075,53.625c-1.625,0.125 -3.234,0.208 -4.829,0.208Zm5.816,-420.708c-2.029,0 -4.079,-0.167 -6.141,-0.416c-26.896,-3.375 -45.963,-27.917 -42.596,-54.792c6.796,-54.25 16.016,-108.875 27.387,-162.417c3.863,-18.166 17.28,-31.791 33.859,-36.792c4.512,-1.374 9.258,-2.083 14.108,-2.083c3.375,-0 6.804,0.334 10.242,1.083c26.512,5.626 43.429,31.667 37.8,58.168c-10.804,50.875 -19.559,102.749 -26.013,154.249c-3.112,24.834 -24.287,43 -48.646,43Zm98.175,-409.166c-5.533,-0 -11.162,-0.917 -16.671,-2.917c-25.487,-9.208 -38.704,-37.291 -29.508,-62.833c18.529,-51.334 39.488,-102.625 62.292,-152.376c6.108,-13.333 17.433,-22.624 30.442,-26.541c4.579,-1.375 9.366,-2.125 14.204,-2.125c6.837,0 13.783,1.458 20.412,4.5c24.642,11.292 35.463,40.417 24.167,65.042c-21.675,47.292 -41.596,96 -59.188,144.833c-7.212,20 -26.045,32.417 -46.15,32.417Zm185.225,-377.708c-9.004,-0 -18.112,-2.459 -26.287,-7.667c-22.879,-14.542 -29.646,-44.834 -15.125,-67.75c29.283,-46.084 60.896,-91.571 93.966,-135.142c6.496,-8.575 15.28,-14.409 24.859,-17.304c4.621,-1.396 9.433,-2.104 14.258,-2.104c10.338,-0 20.758,3.25 29.629,9.979c21.592,16.384 25.813,47.167 9.425,68.758c-31.412,41.396 -61.454,84.605 -89.283,128.437c-9.325,14.75 -25.204,22.793 -41.442,22.793Zm262.959,-328.234c-12.559,-0 -25.113,-4.791 -34.696,-14.379c-19.154,-19.167 -19.154,-50.225 0.004,-69.388c38.717,-38.729 79.479,-76.212 121.167,-111.416c5.279,-4.455 11.233,-7.617 17.45,-9.496c4.633,-1.396 9.416,-2.088 14.191,-2.088c13.95,0 27.809,5.912 37.517,17.412c17.492,20.705 14.879,51.672 -5.829,69.163c-39.6,33.425 -78.313,69.033 -115.096,105.813c-9.583,9.584 -22.146,14.379 -34.708,14.379Zm328.225,-262.679c-16.267,-0 -32.167,-8.063 -41.505,-22.821c-14.491,-22.921 -7.67,-53.237 15.238,-67.729c46.275,-29.271 94.308,-56.875 142.75,-82.067c2.771,-1.437 5.621,-2.574 8.504,-3.45c4.646,-1.4 9.396,-2.079 14.1,-2.079c17.725,-0 34.838,9.625 43.575,26.429c12.504,24.063 3.133,53.683 -20.908,66.196c-46.004,23.904 -91.6,50.116 -135.546,77.929c-8.15,5.137 -17.238,7.592 -26.208,7.592Zm378.129,-184.125c-20.183,0 -39.071,-12.504 -46.233,-32.588c-9.105,-25.546 4.22,-53.621 29.75,-62.716c30.062,-10.721 60.95,-20.875 91.787,-30.188c21.617,-6.529 43.425,-12.717 65.421,-18.562c4.221,-1.121 8.458,-1.654 12.625,-1.654c21.712,-0 41.566,14.512 47.408,36.491c6.963,26.188 -8.729,53.2 -34.821,60.038c-50.766,13.491 -100.862,29.008 -149.466,46.329c-5.446,1.934 -11.009,2.85 -16.471,2.85Zm989.096,-80.65c-2.959,0 -5.959,-0.267 -8.959,-0.825c-51.041,-9.384 -103.158,-16.717 -154.862,-21.763c-26.979,-2.62 -46.704,-26.642 -44.071,-53.612c1.992,-20.388 16.192,-36.651 34.667,-42.229c4.487,-1.358 9.229,-2.075 14.108,-2.075c1.6,-0 3.213,0.079 4.837,0.233c54.442,5.325 109.321,13.038 163.113,22.929c26.625,4.905 44.246,30.479 39.333,57.133c-4.333,23.655 -24.958,40.209 -48.166,40.209Zm-579.829,-16.626c-24.388,0 -45.53,-18.178 -48.626,-42.991c-2.999,-24.091 11.98,-46.262 34.45,-53.045c2.625,-0.792 5.363,-1.38 8.18,-1.726c54.333,-6.783 109.562,-11.329 164.141,-13.516c0.671,-0.025 1.342,-0.038 2.009,-0.038c26.187,0 47.925,20.691 48.987,47.088c1.084,27.092 -20.021,50.004 -47.071,51.008c-51.837,2.079 -104.296,6.409 -155.929,12.838c-2.067,0.258 -4.112,0.382 -6.141,0.382Z" style="fill:#d8e0fc;fill-rule:nonzero;"/><path d="M4558.25,3536.01c-5.75,-0 -11.584,-1.018 -17.292,-3.171c-23.875,-8.997 -48.125,-17.571 -72.083,-25.496c-25.708,-8.487 -39.667,-36.25 -31.166,-61.988c5.208,-15.774 17.666,-27.125 32.416,-31.583c4.542,-1.375 9.333,-2.1 14.167,-2.1c5.125,-0 10.291,0.799 15.375,2.483c25.25,8.342 50.791,17.371 75.875,26.846c25.375,9.554 38.208,37.867 28.625,63.225c-7.417,19.654 -26.084,31.784 -45.917,31.784Z" style="fill:url(#_Linear4);"/><path d="M4571.33,3977.81c-8.124,-5.467 -18.791,-5.188 -26.625,0.7l-222.958,167.996c-121.875,-46.28 -251.996,-73.467 -386.067,-78.526l-139.691,-241.478c-4.9,-8.476 -14.638,-12.901 -24.242,-11.03l-328.671,64.025c-9.608,1.871 -16.962,9.634 -18.329,19.317l-38.837,276.266c-122.367,55 -232.78,129.042 -328.371,217.709l-269.709,-72.042c-9.454,-2.5 -19.466,1.25 -24.937,9.333l-187.129,277.709c-5.471,8.125 -5.192,18.791 0.7,26.625l167.991,222.916c-46.283,121.875 -73.462,252.042 -78.52,386.083l-241.488,139.709c-8.471,4.916 -12.896,14.625 -11.025,24.25l64.025,328.666c1.871,9.584 9.629,16.959 19.321,18.334l276.262,38.834c55.013,122.374 129.05,232.791 217.7,328.374l-72.025,269.708c-2.52,9.459 1.229,19.459 9.342,24.917l277.679,187.126c8.117,5.5 18.808,5.208 26.621,-0.668l222.95,-167.999c121.875,46.291 252.013,73.458 386.079,78.499l139.696,241.501c4.9,8.458 14.633,12.916 24.238,11.041l328.687,-64.042c9.579,-1.875 16.958,-9.624 18.334,-19.333l38.833,-276.25c122.333,-55 232.75,-129.041 328.374,-217.708l269.709,72.042c9.417,2.5 19.458,-1.251 24.917,-9.334l187.125,-277.708c5.458,-8.084 5.208,-18.791 -0.709,-26.625l-167.958,-222.917c46.25,-121.875 73.458,-252.041 78.5,-386.083l241.5,-139.708c8.458,-4.917 12.875,-14.625 11,-24.25l-64,-328.667c-1.875,-9.583 -9.625,-16.958 -19.333,-18.334l-276.25,-38.832c-55.042,-122.376 -129.042,-232.792 -217.709,-328.375l72,-269.709c2.542,-9.458 -1.208,-19.459 -9.333,-24.93l-277.667,-187.132Z" style="fill:#91b3fa;fill-rule:nonzero;"/><path d="M3962.64,5537.83c12.129,-3.668 24.058,-8.25 35.737,-13.709c128.759,-60.583 184.246,-214.625 123.679,-343.375c-60.57,-128.792 -214.591,-184.334 -343.37,-123.709c-128.763,60.584 -184.238,214.625 -123.68,343.376c29.346,62.375 81.213,109.583 146.071,132.958c52.713,19 108.888,20.375 161.563,4.459Zm-171.234,-569.543c157.067,-47.458 329.817,26.25 401.675,179.001c79.001,167.958 6.667,368.874 -161.291,447.875c-81.359,38.291 -172.75,42.542 -257.317,12.083c-84.583,-30.459 -152.25,-92.042 -190.512,-173.416c-79.001,-167.959 -6.63,-368.834 161.304,-447.834c15.146,-7.125 30.575,-13 46.141,-17.709Z" style="fill:#bdd0fb;fill-rule:nonzero;"/><path d="M3644.25,4504.92c26.975,-8.166 54.517,-14.999 82.55,-20.458c8.821,-1.708 17.679,-3.291 26.559,-4.75c43.77,-7.042 88.033,-10.624 132.108,-10.666l1.8,-0c1.704,-0 3.408,-0 5.116,0.042c3.321,-0 6.642,0.041 9.955,0.125c8.721,0.166 16,6 18.404,13.916c0.583,1.916 0.871,4 0.833,6.083c-0.212,10.834 -9.196,19.417 -20.017,19.25c-55.774,-1.125 -112.041,3.792 -167.241,14.542c-274.208,53.375 -487.596,243.75 -583.054,486.208c-53.117,134.834 -69.73,285.834 -40.013,438.333c5.204,26.751 11.721,53.042 19.504,78.751c52.321,173.167 161.692,321.791 313.717,424.249c174.621,117.668 384.629,160.334 591.308,120.042c426.842,-83.166 706.175,-497.875 623.092,-924.541c-5.125,-26.292 -11.583,-52.25 -19.292,-77.709c-33.375,-110.458 -90.541,-212.375 -167.791,-298.249c-2,-2.209 -3.375,-4.751 -4.209,-7.459c-2.125,-7.041 -0.166,-15 5.667,-20.25c8.083,-7.25 20.5,-6.625 27.75,1.458c81.083,90.167 141.125,197.167 176.167,313.125c8.083,26.751 14.833,53.959 20.208,81.584c87.291,447.958 -206.292,883.375 -654.071,970.583c-216.991,42.292 -437.442,-2.458 -620.762,-126.042c-159.605,-107.542 -274.417,-263.583 -329.355,-445.374c-8.158,-27 -14.999,-54.584 -20.475,-82.667c-42.266,-217.001 2.492,-437.459 126.03,-620.75c107.575,-159.626 263.691,-274.458 445.512,-329.376Z" style="fill:#bdd0fb;fill-rule:nonzero;"/><path d="M6910,2888.09c-10.5,-0 -20.75,-5.526 -26.334,-15.313c-12.166,-21.312 -25.166,-42.525 -38.583,-63.084c-9.166,-13.995 -5.208,-32.774 8.792,-41.953c2.5,-1.618 5.125,-2.817 7.834,-3.634c2.874,-0.866 5.791,-1.292 8.749,-1.292c9.875,0 19.542,4.834 25.375,13.738c14.084,21.538 27.667,43.8 40.459,66.158c8.291,14.534 3.25,33.034 -11.292,41.351c-4.75,2.733 -9.917,4.029 -15,4.029Z" style="fill:url(#_Linear5);"/><path d="M5948.96,4793.17c-15.166,0 -28.25,-11.334 -30.041,-26.751c-1.75,-14.791 7.458,-28.375 21.291,-32.541c1.667,-0.5 3.417,-0.875 5.25,-1.083c43.875,-5.208 88.25,-12.875 131.876,-22.834c6.624,-1.5 13.082,-3 19.541,-4.625c2.416,-0.583 4.875,-0.874 7.25,-0.874c13.625,-0 26.042,9.249 29.417,23.083c4.041,16.291 -5.875,33.167 -22.167,36.666c-6.875,1.709 -13.75,3.334 -20.708,4.876c-45.584,10.416 -92.084,18.458 -138.125,23.875c-1.209,0.166 -2.417,0.208 -3.584,0.208Zm305.834,-74.876c-12.292,0 -23.833,-7.333 -28.417,-19.458c-5.958,-15.666 1.917,-33.166 17.542,-39.124c48,-18.209 95.166,-39.5 140.208,-63.375c1.792,-0.918 3.625,-1.667 5.458,-2.209c2.875,-0.875 5.792,-1.292 8.709,-1.292c10.874,0 21.375,5.875 26.833,16.125c7.792,14.792 2.167,33.126 -12.625,40.959c-47.292,25.041 -96.75,47.375 -147.042,66.499c-3.5,1.292 -7.125,1.875 -10.666,1.875Zm278,-147.082c-9.542,-0 -18.917,-4.501 -24.834,-12.917c-9.583,-13.709 -6.25,-32.626 7.458,-42.208c41.834,-29.25 82.292,-61.5 120.251,-95.792c3.458,-3.084 7.416,-5.25 11.541,-6.5c2.875,-0.875 5.834,-1.292 8.751,-1.292c8.291,0 16.541,3.375 22.541,10c11.208,12.416 10.25,31.542 -2.167,42.791c-39.833,35.959 -82.292,69.792 -126.166,100.459c-5.292,3.708 -11.375,5.459 -17.375,5.459Zm233.416,-210.709c-7.042,0 -14.083,-2.459 -19.833,-7.417c-12.667,-10.958 -14.042,-30.083 -3.125,-42.75c33.458,-38.667 64.833,-79.791 93.333,-122.333c4.084,-6.042 9.959,-10.167 16.417,-12.125c2.875,-0.875 5.833,-1.292 8.791,-1.292c5.834,-0 11.709,1.667 16.876,5.125c13.916,9.334 17.625,28.167 8.291,42.042c-29.875,44.583 -62.791,87.708 -97.833,128.25c-6,6.958 -14.416,10.5 -22.917,10.5Zm175.126,-261.408c-4.625,-0 -9.293,-1.046 -13.667,-3.259c-14.917,-7.546 -20.917,-25.775 -13.375,-40.732c23.083,-45.551 43.541,-93.142 60.875,-141.351c3.375,-9.4 10.916,-16.092 19.791,-18.775c2.792,-0.85 5.751,-1.292 8.75,-1.292c3.375,-0 6.834,0.572 10.209,1.775c15.75,5.663 23.958,23.034 18.291,38.784c-18.166,50.566 -39.625,100.429 -63.791,148.237c-5.334,10.55 -16.042,16.613 -27.083,16.613Zm106.458,-296.184c-2.209,0 -4.459,-0.242 -6.709,-0.749c-16.333,-3.664 -26.583,-19.893 -22.916,-36.209c11.208,-49.959 19.458,-101.079 24.375,-151.987c1.25,-12.588 10.041,-22.634 21.458,-26.075c2.792,-0.847 5.708,-1.292 8.75,-1.292c0.958,-0 1.959,0.045 2.917,0.137c16.666,1.617 28.833,16.463 27.249,33.121c-5.208,53.367 -13.833,107.013 -25.624,159.392c-3.167,14.108 -15.625,23.662 -29.5,23.662Zm30.458,-313.321c-16.375,0 -29.833,-13.012 -30.292,-29.474c-1.416,-51.058 -6.041,-102.634 -13.708,-153.28c-2.291,-15.083 6.958,-29.249 21.167,-33.541c1.375,-0.409 2.791,-0.755 4.249,-0.976c1.542,-0.232 3.043,-0.345 4.542,-0.345c14.75,-0 27.709,10.762 29.959,25.783c8.083,53.105 12.916,107.176 14.375,160.696c0.458,16.741 -12.834,30.642 -29.459,31.125c-0.291,0.008 -0.583,0.012 -0.833,0.012Zm-47.125,-311.104c-13.25,0 -25.417,-8.771 -29.167,-22.15c-2.416,-8.641 -4.916,-17.233 -7.499,-25.758c-12.209,-40.437 -26.626,-80.72 -42.876,-119.725c-6.458,-15.454 0.833,-33.192 16.292,-39.65c0.958,-0.383 1.958,-0.742 2.917,-1.037c2.916,-0.872 5.833,-1.292 8.75,-1.292c11.833,0 23.125,7.016 27.958,18.649c17.042,40.897 32.208,83.134 45,125.521c2.708,8.926 5.292,17.913 7.833,26.95c4.501,16.142 -5.958,32.505 -21.041,37.367c-2.709,0.763 -5.459,1.125 -8.167,1.125Z" style="fill:url(#_Linear6);"/><path d="M4519.08,3219.72c7.584,-35.42 16.667,-70.662 27.125,-105.262c3.083,-10.079 10.917,-17.396 20.292,-20.225c2.792,-0.85 5.75,-1.3 8.75,-1.3c2.917,0 5.833,0.425 8.792,1.321c16,4.838 25.083,21.771 20.208,37.795c-2.625,8.651 -5.125,17.343 -7.584,26.076c-26.208,20.421 -52.125,40.996 -77.583,61.595Z" style="fill:#d8e0fc;fill-rule:nonzero;"/><path d="M4539.42,3304.46c-1.708,-0 -3.459,-0.147 -5.209,-0.455c-16.5,-2.875 -27.541,-18.55 -24.666,-35.062c2.833,-16.417 6.041,-32.842 9.541,-49.23c25.458,-20.599 51.375,-41.174 77.583,-61.595c-11.166,39.937 -20.374,80.608 -27.416,121.229c-2.583,14.704 -15.375,25.113 -29.833,25.113Z" style="fill:url(#_Linear7);"/><path d="M4629.08,3008.08c-4.125,0 -8.25,-0.829 -12.25,-2.587c-15.291,-6.754 -22.25,-24.63 -15.5,-39.942c21.251,-48.188 45.709,-95.675 72.667,-141.117c4.042,-6.775 10.292,-11.424 17.292,-13.541c2.875,-0.859 5.833,-1.3 8.833,-1.3c5.25,-0 10.583,1.371 15.417,4.246c14.416,8.546 19.166,27.145 10.625,41.537c-25.75,43.367 -49.084,88.659 -69.334,134.612c-5.041,11.351 -16.125,18.092 -27.75,18.092Zm158.084,-266.096c-6.459,0 -12.958,-2.062 -18.5,-6.308c-13.25,-10.225 -15.709,-29.262 -5.5,-42.529c32.208,-41.792 67.292,-82.034 104.25,-119.617c3.708,-3.741 8.125,-6.316 12.833,-7.729c2.875,-0.867 5.833,-1.3 8.792,-1.3c7.708,-0 15.375,2.892 21.25,8.695c11.958,11.759 12.083,30.951 0.375,42.876c-35.334,35.829 -68.75,74.2 -99.459,114.087c-6,7.763 -14.958,11.825 -24.041,11.825Zm217.041,-220.521c-8.916,-0 -17.75,-3.916 -23.708,-11.453c-10.417,-13.088 -8.25,-32.176 4.833,-42.593c41.25,-32.762 84.959,-63.387 130.042,-91.033c2.25,-1.403 4.667,-2.462 7.083,-3.196c2.875,-0.866 5.834,-1.292 8.75,-1.292c10.167,0 20.125,5.138 25.833,14.464c8.751,14.245 4.292,32.904 -9.957,41.67c-43.001,26.4 -84.709,55.604 -124.001,86.867c-5.625,4.417 -12.291,6.566 -18.875,6.566Zm264,-161.787c-11.541,0 -22.583,-6.492 -27.666,-17.675c-6.958,-15.25 -0.208,-33.213 15.041,-40.154c47.917,-21.809 97.751,-40.966 148.084,-56.896l0.416,-0.121c2.917,-0.879 5.834,-1.3 8.75,-1.3c12.876,0 24.792,8.266 28.917,21.188c5.042,15.945 -3.792,32.995 -19.792,38.033c-48.041,15.195 -95.583,33.446 -141.25,54.267c-4.041,1.8 -8.291,2.658 -12.5,2.658Zm295.001,-93.317c-14.251,0 -26.959,-10.15 -29.709,-24.691c-2.917,-15.392 6.334,-30.209 20.958,-34.63c1.042,-0.316 2.125,-0.57 3.209,-0.775c51.875,-9.787 104.833,-16.516 157.458,-20.008c0.667,-0.046 1.333,-0.066 2,-0.066c15.833,-0 29.167,12.266 30.25,28.296c1.125,16.728 -11.625,31.125 -28.25,32.27c-50.208,3.325 -100.75,9.754 -150.25,19.071c-1.875,0.358 -3.792,0.533 -5.666,0.533Zm463.041,-2.108c-1.75,-0 -3.584,-0.158 -5.375,-0.479c-49.5,-8.946 -100.083,-14.908 -150.333,-17.75c-16.75,-0.955 -29.542,-15.266 -28.584,-31.979c0.75,-13.054 9.667,-23.725 21.5,-27.3c2.792,-0.846 5.75,-1.296 8.792,-1.296c0.583,0 1.125,0.016 1.708,0.046c52.709,2.97 105.792,9.233 157.709,18.625c16.458,2.97 27.417,18.746 24.416,35.224c-2.625,14.625 -15.416,24.909 -29.833,24.909Z" style="fill:#d8e0fc;fill-rule:nonzero;"/><path d="M6200.71,2310.31c-10.417,-3.542 -20.917,-6.959 -31.417,-10.23c-16,-4.971 -24.917,-21.974 -19.959,-37.945c3.125,-9.971 10.917,-17.209 20.208,-20.026c2.792,-0.841 5.75,-1.287 8.751,-1.287c2.958,0 6,0.442 8.999,1.371c24.792,7.704 49.418,16.183 73.292,25.171c9.084,3.425 15.542,10.738 18.251,19.324c-26.209,7.675 -52.292,15.571 -78.125,23.622Z" style="fill:#d8e0fc;fill-rule:nonzero;"/><path d="M6249.83,2326.05c-3.541,-0 -7.125,-0.621 -10.625,-1.938c-12.625,-4.766 -25.5,-9.379 -38.499,-13.795c25.833,-8.051 51.916,-15.947 78.125,-23.622c1.958,6.238 1.916,13.15 -0.584,19.738c-4.583,12.125 -16.125,19.617 -28.417,19.617Z" style="fill:url(#_Linear8);"/><path d="M6258.67,2624.24c-5.458,-3.658 -12.582,-3.471 -17.832,0.471l-149.167,112.413c-81.583,-30.971 -168.667,-49.162 -258.375,-52.546l-93.458,-161.587c-3.292,-5.667 -9.792,-8.629 -16.209,-7.379l-219.958,42.841c-6.417,1.255 -11.334,6.446 -12.251,12.925l-26,184.867c-81.874,36.812 -155.75,86.353 -219.708,145.67l-180.5,-48.191c-6.333,-1.688 -13.041,0.821 -16.666,6.254l-125.25,185.808c-3.625,5.434 -3.459,12.584 0.5,17.813l112.416,149.188c-31,81.554 -49.166,168.637 -52.542,258.345l-161.624,93.48c-5.667,3.278 -8.625,9.791 -7.375,16.216l42.833,219.938c1.292,6.429 6.458,11.353 12.958,12.258l184.834,25.992c36.833,81.882 86.375,155.766 145.708,219.728l-48.208,180.467c-1.667,6.333 0.833,13.042 6.25,16.708l185.791,125.209c5.458,3.667 12.584,3.459 17.834,-0.458l149.166,-112.417c81.584,30.959 168.667,49.166 258.375,52.542l93.459,161.583c3.291,5.666 9.791,8.625 16.25,7.375l219.916,-42.833c6.417,-1.25 11.334,-6.459 12.25,-12.917l26,-184.875c81.875,-36.792 155.75,-86.354 219.75,-145.675l180.458,48.196c6.334,1.688 13.042,-0.825 16.667,-6.254l125.25,-185.808c3.625,-5.43 3.458,-12.584 -0.5,-17.814l-112.375,-149.191c30.959,-81.554 49.125,-168.633 52.542,-258.345l161.584,-93.476c5.666,-3.274 8.624,-9.792 7.374,-16.221l-42.833,-219.929c-1.292,-6.429 -6.458,-11.353 -12.958,-12.266l-184.834,-25.988c-36.833,-81.883 -86.375,-155.762 -145.708,-219.733l48.209,-180.475c1.707,-6.33 -0.834,-13.025 -6.25,-16.687l-185.793,-125.222Z" style="fill:#91b3fa;fill-rule:nonzero;"/><path d="M5850.42,3664.17c7.833,-2.358 15.541,-5.312 23.125,-8.874c84.166,-39.604 120.417,-140.254 80.833,-224.4c-19.209,-40.742 -53.083,-71.629 -95.458,-86.875c-42.417,-15.271 -88.167,-13.071 -128.959,6.05c-40.75,19.174 -71.625,53.084 -86.875,95.446c-15.291,42.4 -13.125,88.188 6.042,128.962c36,76.542 122.583,113.462 201.292,89.691Zm-114.5,-381.137c46.791,-14.138 96.708,-12.917 143.541,3.946c57.625,20.754 103.709,62.713 129.75,118.134c53.834,114.354 4.542,251.195 -109.875,305.037c-114.625,53.68 -251.25,4.5 -305.041,-109.888c-26.084,-55.416 -29,-117.67 -8.25,-175.27c20.75,-57.63 62.708,-103.725 118.125,-129.775c10.375,-4.863 21,-8.934 31.75,-12.184Z" style="fill:#bdd0fb;fill-rule:nonzero;"/><path d="M5633.88,2960.36c18.375,-5.546 37.167,-10.196 56.375,-13.963c38.166,-7.441 77.083,-11.009 115.875,-10.6c1.708,0.034 3.459,0.062 5.208,0.096c13.458,0.258 24.709,9.262 28.417,21.499c0.917,2.976 1.333,6.151 1.292,9.417c-0.334,16.734 -14.209,29.955 -30.917,29.679c-36.167,-0.729 -72.583,2.455 -108.25,9.413l-0,0.008c-1.958,0.376 -3.958,0.784 -5.875,1.183c-84.209,17.247 -160.958,54.838 -225,108.809c-34.792,29.305 -65.792,63.471 -92.208,101.904l-0.625,0.938c-0.667,0.97 -1.334,1.912 -1.959,2.875c-76.166,113.054 -103.791,249 -77.708,382.804c3.333,17.321 7.583,34.321 12.625,50.98c33.875,112.091 104.667,208.324 203.083,274.666c113.042,76.179 249.001,103.758 382.792,77.692c133.708,-26.1 249.458,-102.684 325.666,-215.709c76.167,-113.05 103.751,-249 77.709,-382.804c-3.333,-17.029 -7.5,-33.825 -12.458,-50.312c-21.625,-71.521 -58.625,-137.488 -108.625,-193.067c-3.084,-3.433 -5.25,-7.355 -6.5,-11.496c-3.292,-10.883 -0.292,-23.2 8.749,-31.304c12.459,-11.159 31.584,-10.196 42.834,2.279c55.917,62.196 97.333,136.017 121.542,215.996c5.583,18.475 10.25,37.258 13.958,56.3c29.167,149.72 -1.708,301.808 -86.958,428.296c-85.25,126.454 -214.5,212.258 -364.333,241.333c-149.667,29.171 -301.751,-1.7 -428.251,-86.959c-110.125,-74.191 -189.333,-181.862 -227.208,-307.266c-5.625,-18.621 -10.375,-37.659 -14.125,-57.017c-56.458,-289.837 118.083,-572.058 394.875,-655.67Z" style="fill:#bdd0fb;fill-rule:nonzero;"/><clipPath id="_clip9"><path d="M3080.97,14603.3c0,0 359.492,157.292 975.783,-127.541c616.284,-284.875 2292.03,-313.292 2292.03,-313.292c-0,0 -542.875,-2031.79 663.499,-3485.38c0,0 971.667,1818.71 1654.54,2090.12l305.833,14.042l0,-1297.46c0,0 -259.375,-1601.71 -1900.04,-2797.79l-510.834,-460.417c0,0 -1796.29,-362.167 -3017.79,1780.58c-1221.52,2142.75 -463.025,4597.12 -463.025,4597.12Z"/></clipPath><g clip-path="url(#_clip9)"><rect x="2848.23" y="8202.51" width="6124.44" height="5327.87" style="fill:url(#_Linear10);fill-rule:nonzero;"/></g><path d="M9075.92,9000.79c17.083,-90.041 23.5,-300.666 -193.709,-557.374c-290.666,-343.459 -663.541,-168.334 -663.541,-168.334c-330.334,185.001 -469.917,789.084 -469.917,789.084l349.292,-186.417c52.916,153.667 568.791,319.334 568.791,319.334l2.875,-1.084c4.954,334.125 -3.125,1308.62 -240.083,1986.42c-92.834,265.541 -281.667,758.875 341.791,1604.29l343.543,-14.041c-0,-0 769.708,-1306.62 -39.042,-3771.88Z" style="fill:url(#_Linear11);"/><path d="M7329.79,7020.08l-956.542,1350.67c-62.208,87.792 -53.709,206.875 19.833,285.375c128.875,137.583 346.209,331.417 580.5,375.667c72.75,13.75 146.75,-16.792 187.167,-78.792l508.709,-780.916c-0,-0 97.416,-1226.67 -339.667,-1152Z" style="fill:url(#_Linear12);"/><path d="M7964.96,6142.17c15.959,21.25 533.459,1699.21 533.459,1699.21l-964.375,275.125l-726.75,-1517.5c-0,0 890.833,-812.458 1157.67,-456.833Z" style="fill:url(#_Linear13);"/><path d="M7190.04,6848.12l306.916,794.875c6.709,17.292 15.917,33.333 27.5,47.875c51.5,64.625 201.375,216.958 367.292,53.958c125.75,-123.5 244.25,-237 357.125,-293.75c99.458,-50 219.958,4.5 251.667,111.25c47.541,159.959 122.416,434.625 161.495,696.417c14.13,94.625 -47.875,184.042 -141.495,203.625c-196.333,41.083 -538.875,101 -839.042,94c-66.542,-1.583 -126.25,-40.792 -155.75,-100.458c-111.083,-224.542 -390.042,-781.875 -495.042,-930.334c-96.5,-136.5 -314.416,-135.708 -425.5,-125.25c-51.625,4.834 -102.5,-12.416 -140.25,-47.875c-88.625,-83.166 -207.333,-250.833 -38.291,-459.083c58.833,-72.417 53.916,-175.416 -10.833,-242.625c-93.542,-97.125 -171.042,-252.167 -23.292,-446.917c156.583,-206.333 368.208,-195.166 510.833,-154.208c69.542,19.958 140.5,-10.5 186.208,-66.625c13.333,-16.375 32.209,-28.875 58.917,-33.209c87.167,-14.041 154.167,-81.083 156.667,-169.332c3.666,-130.417 60,-282.001 275.166,-355.918c420.584,-144.458 697.209,257.834 732.334,563.042c35.083,305.209 -429.792,435.875 -705.75,423.251c-191.25,-8.751 -332.292,166.666 -400.876,275.166c-30.708,48.542 -36.666,108.5 -15.999,162.125Z" style="fill:url(#_Linear14);"/><path d="M7150.25,7826.17c0,-0 -84.042,-529.167 -305.75,-548.751c-221.708,-19.583 -431.5,168.251 -203.125,460.001c284.042,362.874 508.875,88.75 508.875,88.75Z" style="fill:url(#_Linear15);"/><path d="M4750.33,8421.79c0,-0 -1928.15,1229.75 -2350.26,2657.46c-422.117,1427.75 522.617,1708.67 1422.12,1835.12l67.691,-1090.21c0,-0 -630.129,-0 -228.162,-595.917c401.975,-595.917 1482.15,-993.208 1482.15,-993.208c0,-0 2736.92,-2582.33 -393.542,-1813.25Z" style="fill:url(#_Linear16);"/><path d="M3889.88,11849c-11.033,0 -271.462,-1.917 -359.262,-167.042c-59.921,-112.708 -22.746,-270.041 110.525,-467.583c401.837,-595.75 1449.77,-986.292 1494.19,-1002.62c12.875,-4.75 27.167,1.875 31.834,14.708c4.75,12.875 -1.833,27.167 -14.709,31.875c-10.75,3.958 -1077.35,401.459 -1470.14,983.792c-122.142,181.083 -158.442,321.167 -107.904,416.417c73.691,138.833 313.07,140.791 315.491,140.791c13.704,0.042 24.809,11.167 24.809,24.875c-0.025,13.709 -11.134,24.792 -24.83,24.792Z" style="fill:url(#_Linear17);"/><path d="M3822.19,12914.4c-0,0 -281.671,-465.583 89.291,-1021.83l2490.1,412.291c0,0 1191.96,-201.666 1248.96,-197.583c57,4.083 834.958,483.25 834.958,483.25c0,-0 -26.125,55.583 -211.25,45.333c-185.167,-10.291 -63.625,22.375 -63.625,22.375l-6.709,93.5c0,0 -128.874,29.542 -232.208,-80.416c-103.375,-109.959 -390.708,-163.209 -390.708,-163.209c-0,0 -610.75,451.292 -1210.71,232.959l-2548.1,173.333Z" style="fill:url(#_Linear18);"/><clipPath id="_clip19"><path d="M7445.25,20769.4c-19.5,-0 -39.291,-4.001 -58.375,-12.376c-75.042,-33.083 -109.708,-122.166 -77.417,-199.041l3101.83,-7386.08c32.291,-76.834 119.208,-112.334 194.333,-79.292c75,33.042 109.666,122.167 77.416,199.042l-3101.83,7386.08c-24.083,57.334 -78.625,91.667 -135.958,91.667Z"/></clipPath><g clip-path="url(#_clip19)"><rect x="7297.38" y="13080.3" width="3397.72" height="450.108" style="fill:url(#_Linear20);fill-rule:nonzero;"/></g><clipPath id="_clip21"><path d="M10939.6,20769.4c-57.333,-0 -111.875,-34.333 -135.917,-91.667l-3101.83,-7386.08c-32.292,-76.875 2.375,-166 77.417,-199.042c74.958,-33.083 162,2.417 194.292,79.292l3101.83,7386.08c32.292,76.875 -2.375,165.958 -77.417,199.041c-19.042,8.375 -38.875,12.376 -58.375,12.376Z"/></clipPath><g clip-path="url(#_clip21)"><rect x="7689.75" y="13080.2" width="3397.71" height="450.131" style="fill:url(#_Linear22);fill-rule:nonzero;"/></g><path d="M13234,12951.4c4.5,-45.792 -1.625,-93.167 -16.709,-129.125c-15.124,-35.958 -37.583,-56.792 -61.333,-56.792l-8037.38,0c-31.208,0 -60.25,31.25 -77.083,82.917c-16.791,51.667 -19.042,116.625 -5.958,172.292l87.083,370.5c19.958,84.875 63.167,139.208 110.708,139.208l7867.5,0c44.209,0 82.25,-61.667 90.625,-147.042l42.542,-431.958Z" style="fill:url(#_Linear23);"/><path d="M9757.54,4030.12c-1052.21,502.333 -1743.54,1547.79 -926.417,1498.96c794.917,-47.458 899.875,159.125 928.75,365.667c26.875,192.042 -12.042,384.083 376.667,372c806.791,-25.125 2055.58,-197.209 2872.71,-1043.92c817.125,-846.75 22.875,-1049.12 -308.333,-1016.33c-397.167,39.292 -458.25,-182.154 -534.626,-403.617c-133.333,-386.583 -313.249,-773.162 -2408.75,227.242Z" style="fill:#bdd0fb;fill-rule:nonzero;"/><path d="M9401.08,6682.79c2.167,119.125 89.876,314.708 286.751,311.083c196.875,-3.625 428.416,-205.083 426.208,-324.25c-2.208,-119.166 -163.583,-212.792 -360.458,-209.167c-196.875,3.625 -354.709,103.167 -352.501,222.334Z" style="fill:#bdd0fb;fill-rule:nonzero;"/><path d="M9105.5,7163c1.084,57.667 51.833,103.542 113.375,102.375c61.542,-1.125 183.208,-62.459 182.167,-120.125c-1.084,-57.708 -77.376,-115.375 -138.917,-114.25c-61.542,1.125 -157.666,74.292 -156.625,132Z" style="fill:#bdd0fb;fill-rule:nonzero;"/><path d="M11376.8,4976.58c-1.625,-19.999 -22.042,-37.292 -56.625,-51.166c37.584,-20.709 58.375,-42.917 56.625,-64.708c-5.334,-65.917 -214.041,-102.834 -466.167,-82.501c-252.125,20.333 -452.208,90.208 -446.875,156.125c1.583,20 22.001,37.292 56.584,51.167c-37.583,20.708 -58.333,42.917 -56.584,64.709c1.583,19.958 22.001,37.291 56.584,51.125c-37.583,20.75 -58.333,42.957 -56.584,64.708c1.583,19.999 22.001,37.292 56.584,51.166c-37.583,20.709 -58.333,42.917 -56.584,64.708c2.334,29.125 44.5,52.626 112.584,68.001c-0.875,21.499 -0.375,45.125 1.75,71.167c9.833,121.458 146.458,216.666 327.083,216.666c180.667,0 337.042,-129.834 338.834,-251.625c0.416,-29.875 -0.875,-56.167 -3.543,-79.5c86.417,-28.875 139.084,-64.125 136.334,-98.333c-1.625,-20.001 -22.042,-37.292 -56.625,-51.167c37.584,-20.708 58.375,-42.917 56.625,-64.667c-1.625,-20 -22.042,-37.291 -56.625,-51.167c37.584,-20.75 58.375,-42.957 56.625,-64.708Z" style="fill:url(#_Linear24);"/><path d="M10793.9,5376.12c-74.875,0 -143.376,-5.5 -200,-16.333c-3.292,-0.667 -5.417,-3.834 -4.792,-7.126c0.625,-3.249 3.792,-5.416 7.084,-4.791c88.583,16.959 206.874,20.708 333.124,10.542c103.334,-8.334 199.917,-25 279.417,-48.209c3.209,-0.916 6.541,0.917 7.5,4.125c0.958,3.209 -0.917,6.584 -4.125,7.5c-80.25,23.417 -177.708,40.25 -281.792,48.625c-46.916,3.792 -92.75,5.667 -136.416,5.667Z" style="fill:url(#_Linear25);"/><path d="M10795.2,5260.17c-97.25,0 -184.209,-9.166 -245.542,-26.624c-3.209,-0.917 -5.084,-4.25 -4.167,-7.5c0.917,-3.209 4.25,-5.042 7.5,-4.167c87.375,24.917 228.083,32.625 376.375,20.667c146.709,-11.833 283.542,-41.625 366,-79.625c3.042,-1.417 6.625,-0.083 8.042,2.958c1.375,3.042 0.084,6.625 -2.958,8.042c-83.709,38.583 -222.042,68.75 -370.084,80.667c-46.208,3.749 -91.708,5.582 -135.166,5.582Z" style="fill:url(#_Linear26);"/><path d="M10793.9,5144.38c-105.042,-0 -196.959,-10.75 -258.834,-31.167c-3.167,-1.042 -4.875,-4.458 -3.833,-7.624c1.042,-3.167 4.459,-4.918 7.625,-3.876c86.125,28.417 232.083,37.709 390.458,24.958c146.709,-11.832 283.501,-41.583 366,-79.624c3.042,-1.417 6.625,-0.084 8.042,2.958c1.375,3.042 0.084,6.625 -2.958,8.041c-83.709,38.584 -222.083,68.75 -370.084,80.709c-46.916,3.792 -92.791,5.625 -136.416,5.625Z" style="fill:url(#_Linear27);"/><path d="M10794.8,5028.46c-83.333,-0 -159.125,-6.751 -218.042,-19.834c-3.25,-0.709 -5.333,-3.958 -4.583,-7.208c0.708,-3.292 3.958,-5.333 7.208,-4.625c88.626,19.708 216.167,24.791 350,14c145.417,-11.709 281.501,-41.167 364.125,-78.751c3.042,-1.416 6.625,-0.041 8.042,3c1.375,3.042 0.042,6.626 -3.042,8.001c-83.791,38.166 -221.416,67.999 -368.125,79.833c-46.375,3.75 -92,5.584 -135.583,5.584Z" style="fill:url(#_Linear28);"/><path d="M10894.8,4971.75c-378.708,-0 -538.208,-360 -600.334,-580.042c-30.624,-108.458 -82.624,-209.792 -152.666,-298.095c-38.458,-48.459 -83.125,-109.751 -128.833,-182.946c-132.626,-212.534 -273.834,-525.429 -296.251,-915.992c-12.416,-215.821 32.833,-401.225 118.001,-554.946c198.166,-357.604 612.707,-543.896 1021.88,-543.896c37.333,0 74.583,1.551 111.666,4.662c618.083,51.913 1227.96,512.118 1161.21,1222.61c-14.043,149.371 -51.834,286.404 -102.793,409.705c-98.207,237.571 -245.207,424.129 -365.166,549.495c-115.667,120.942 -198.209,269.026 -242.875,430.317c-54.666,197.416 -184.791,443.416 -494.042,458.417c-10.083,0.458 -19.999,0.708 -29.791,0.708Zm873.499,-1274.33c-7.291,0 -14.375,3.775 -18.249,10.537c-29.875,51.725 -63.75,103.204 -100.708,153.005c-6.959,9.341 -5.001,22.541 4.332,29.479c3.792,2.795 8.209,4.149 12.542,4.149c6.458,0 12.792,-2.941 16.959,-8.512c37.917,-51.087 72.666,-103.925 103.375,-157.046c5.791,-10.078 2.375,-22.962 -7.709,-28.779c-3.333,-1.92 -6.958,-2.833 -10.542,-2.833Zm105.043,-1145.12c-2.918,0 -5.918,0.617 -8.751,1.921c-10.583,4.838 -15.249,17.342 -10.416,27.917c2.041,4.442 199.916,449.613 -29.334,977.654c-4.666,10.679 0.25,23.088 10.917,27.725c2.708,1.183 5.583,1.746 8.375,1.746c8.125,0 15.916,-4.746 19.333,-12.683c237.083,-545.93 31.167,-1007.39 29.042,-1011.98c-3.541,-7.742 -11.167,-12.296 -19.166,-12.296Zm-1107,657.729l109.792,244.521l0.083,0.187c1.75,3.909 5.042,7.326 9.626,9.48c3.208,1.5 6.666,2.213 10.083,2.213c7.542,-0 14.833,-3.492 18.666,-9.642l105.917,-169.971l39.875,85.975l0.334,0.759c0.291,0.616 0.624,1.224 1,1.825c3.791,6.087 10.999,9.545 18.458,9.545c3.333,0 6.75,-0.699 9.917,-2.179l142.916,-66.787c10.209,-4.763 14,-15.78 8.5,-24.613c-3.791,-6.088 -11,-9.546 -18.458,-9.546c-3.334,0 -6.751,0.7 -9.917,2.179l-120.417,56.263l-41.791,-119.104c-2.209,-6.213 -7.334,-11.721 -14.667,-14.733c-3.833,-1.588 -7.916,-2.338 -11.916,-2.338c-10.375,0 -20.334,5.071 -25.084,13.741l-0.208,0.388l-99.042,180.571l-91.875,-257.05l-0.167,-0.426c-2.249,-6.27 -7,-11.908 -13.916,-15.687c-5.459,-2.979 -11.542,-4.399 -17.542,-4.399c-10.958,-0 -21.667,4.729 -27.917,13.357l-138.458,190.597c-5.625,7.808 -3.708,18.279 4.875,24.05c3.833,2.578 8.375,3.829 12.875,3.829c6.25,-0 12.458,-2.413 16.583,-7.026l121.875,-135.979Z" style="fill:url(#_Linear29);"/><path d="M11026.8,4818.75l216.293,-1406.63c4.457,-29.058 18.75,-48.575 31.916,-43.588c13.166,4.988 20.25,32.588 15.792,61.646c-0.125,0.775 -0.292,1.729 -0.417,2.492l-246.375,1393.54c-1.833,10.501 -7.166,17.083 -11.875,14.792c-4.583,-2.25 -6.875,-12.125 -5.334,-22.25Z" style="fill:url(#_Linear30);"/><path d="M10802.3,4829.92l-216.251,-1406.62c-4.457,-29.059 -18.75,-48.576 -31.958,-43.588c-13.166,4.983 -20.208,32.587 -15.75,61.642c0.125,0.774 0.292,1.734 0.417,2.491l246.333,1393.54c1.876,10.5 7.167,17.084 11.917,14.792c4.542,-2.25 6.875,-12.125 5.292,-22.251Z" style="fill:url(#_Linear31);"/><path d="M10895.9,3466.44c-3.417,-0 -6.875,-0.713 -10.083,-2.213c-4.584,-2.154 -7.876,-5.571 -9.626,-9.48l-0.083,-0.187l-109.792,-244.521l-121.875,135.979c-4.125,4.613 -10.333,7.026 -16.583,7.026c-4.5,-0 -9.042,-1.251 -12.875,-3.829c-8.583,-5.771 -10.5,-16.242 -4.875,-24.05l138.458,-190.597c6.25,-8.628 16.959,-13.357 27.917,-13.357c6,-0 12.083,1.42 17.542,4.399c6.916,3.779 11.667,9.417 13.916,15.687l0.167,0.426l91.875,257.05l99.042,-180.571l0.208,-0.388c4.75,-8.67 14.709,-13.741 25.084,-13.741c4,0 8.083,0.75 11.916,2.338c7.333,3.012 12.458,8.52 14.667,14.733l41.791,119.104l120.417,-56.263c3.166,-1.479 6.583,-2.179 9.917,-2.179c7.458,0 14.667,3.458 18.458,9.546c5.5,8.833 1.709,19.85 -8.5,24.613l-142.916,66.787c-3.167,1.48 -6.584,2.179 -9.917,2.179c-7.459,0 -14.667,-3.458 -18.458,-9.545c-0.376,-0.601 -0.709,-1.209 -1,-1.825l-0.334,-0.759l-39.875,-85.975l-105.917,169.971c-3.833,6.15 -11.124,9.642 -18.666,9.642Z" style="fill:url(#_Linear32);"/><path d="M11666.2,3894.6c-4.333,0 -8.75,-1.354 -12.542,-4.149c-9.333,-6.938 -11.291,-20.138 -4.332,-29.479c36.958,-49.801 70.833,-101.28 100.708,-153.005c3.874,-6.762 10.958,-10.537 18.249,-10.537c3.584,0 7.209,0.913 10.542,2.833c10.084,5.817 13.5,18.701 7.709,28.779c-30.709,53.121 -65.458,105.959 -103.375,157.046c-4.167,5.571 -10.501,8.512 -16.959,8.512Z" style="fill:url(#_Linear33);"/><path d="M11844.1,3589.27c-2.792,0 -5.667,-0.563 -8.375,-1.746c-10.667,-4.637 -15.583,-17.046 -10.917,-27.725c229.25,-528.041 31.375,-973.212 29.334,-977.654c-4.833,-10.575 -0.167,-23.079 10.416,-27.917c2.833,-1.304 5.833,-1.921 8.751,-1.921c7.999,0 15.625,4.554 19.166,12.296c2.125,4.596 208.041,466.054 -29.042,1011.98c-3.417,7.937 -11.208,12.683 -19.333,12.683Z" style="fill:url(#_Linear34);"/><path d="M11684.9,8744.21c-170.709,-406.833 -789.083,-1640.21 -1882.96,-1259.29c-16.125,5.625 -14.25,29.041 2.542,32.166c241.208,44.708 1134.96,270.459 1851.71,1243.25c11.666,15.834 36.291,2 28.708,-16.125Z" style="fill:#91b3fa;fill-rule:nonzero;"/><path d="M11675.5,8769.62c-245.916,-231.787 -978.166,-1128.5 -1950.62,-718.708c-10.667,4.5 -8.5,20.333 3,21.541c240.334,25.417 1433.58,176.542 1942.96,716.834c13.5,14.333 19.001,-6.167 4.667,-19.667Z" style="fill:#91b3fa;fill-rule:nonzero;"/><path d="M11652.4,8667.83c-23.375,-306.625 -160.375,-1464.33 -905.959,-1703.12c-5.458,-1.75 -10.125,4.459 -6.791,9.125c89.792,126.667 743.458,1062.79 901.083,1695.88c1.792,7.042 12.208,5.375 11.667,-1.875Z" style="fill:#91b3fa;fill-rule:nonzero;"/><path d="M11726.6,9019.21c6.542,3.542 12.917,-4.916 7.667,-10.208c-131.708,-131.208 -677.042,-613.375 -1369.38,-375.917c-784.375,268.959 588.999,-33.125 1361.71,386.125Z" style="fill:#91b3fa;fill-rule:nonzero;"/><path d="M11708.5,8778.96c-1.584,22.959 -34.166,25.667 -39.25,3.25c-82.708,-363.667 -258,-1366.5 252.166,-1621.58c603.834,-301.916 -130.874,429.209 -212.916,1618.33Z" style="fill:#91b3fa;fill-rule:nonzero;"/><path d="M11673.3,8776.42c85.708,-223.292 416.083,-916.709 1103.67,-542.042c11.584,6.333 7.834,23.958 -5.375,24.791c-154.666,9.751 -669.041,76.501 -1076.12,530.459c-9.791,10.917 -27.416,0.458 -22.166,-13.208Z" style="fill:#91b3fa;fill-rule:nonzero;"/><path d="M11691.8,8832.46c31.625,-137.875 196.126,-414.458 1033.04,-161.121c5.041,1.496 3.709,9.038 -1.5,8.496c-164.459,-17.083 -720.208,-54.833 -992.584,176.459c-17.5,14.833 -44.082,-1.459 -38.958,-23.834Z" style="fill:#91b3fa;fill-rule:nonzero;"/><path d="M11932.7,12606.8l0.291,-28.25l-0,-30.334l-0.458,-60.791l-0.792,-121.542l-3.542,-243.167c-2.166,-162.041 -5.375,-324.083 -8.792,-486.083c-7.375,-324 -16.666,-647.875 -31.457,-971.375c-14.501,-323.5 -34.5,-646.709 -65.625,-968.666c-15.959,-160.917 -35.209,-321.459 -61.126,-480.876c-25.458,-159.375 -58.25,-317.958 -111.5,-470.25l14.417,-5.916c31.708,75.166 59.5,152.25 80.375,231.041l16.334,58.959c5.125,19.749 9.541,39.625 14.375,59.416l14.124,59.5l12.542,59.75c32.333,159.667 57.333,320.667 76.958,482.126c20.084,161.416 34.959,323.333 48.209,485.291c12.333,162.042 21.624,324.25 29.708,486.5c7.042,162.25 12.292,324.584 16.083,486.917c2.542,162.333 5.042,324.666 4.167,487c-0.209,162.333 -2.625,324.666 -6.708,486.916l-8.625,243.375l-5.334,121.667l-3.667,60.792l-2.041,30.458c-0.875,10.25 -1.125,19.708 -3.125,32.458l-14.791,-4.916Z" style="fill:#91b3fa;fill-rule:nonzero;"/><path d="M12215.7,9740.5c114.333,-272.5 528.583,-1098.75 1261.38,-843.542c10.792,3.751 9.541,19.458 -1.708,21.542c-161.584,29.917 -760.292,181.167 -1240.46,832.833c-7.792,10.625 -24.333,1.334 -19.208,-10.833Z" style="fill:#91b3fa;fill-rule:nonzero;"/><path d="M12221.9,9757.54c164.75,-155.25 655.291,-755.959 1306.71,-481.459c7.167,3.042 5.708,13.625 -2,14.459c-161,17 -960.334,118.25 -1301.54,480.208c-9.083,9.583 -12.75,-4.125 -3.166,-13.208Z" style="fill:#91b3fa;fill-rule:nonzero;"/><path d="M12237.4,9689.38c15.625,-205.417 107.416,-980.958 606.874,-1140.92c3.667,-1.162 6.751,3.004 4.542,6.088c-60.166,84.871 -498.042,711.996 -603.624,1136.08c-1.167,4.708 -8.168,3.625 -7.792,-1.25Z" style="fill:#91b3fa;fill-rule:nonzero;"/><path d="M12187.7,9924.75c-4.417,2.375 -8.709,-3.292 -5.167,-6.833c88.25,-87.875 453.541,-410.876 917.333,-251.834c525.459,180.167 -394.542,-22.166 -912.166,258.667Z" style="fill:#91b3fa;fill-rule:nonzero;"/><path d="M12199.8,9763.83c1.042,15.334 22.875,17.167 26.292,2.167c55.417,-243.625 172.833,-915.417 -168.917,-1086.29c-404.5,-202.25 87.667,287.5 142.625,1084.12Z" style="fill:#91b3fa;fill-rule:nonzero;"/><path d="M12223.4,9762.12c-57.417,-149.625 -278.75,-614.083 -739.334,-363.125c-7.791,4.25 -5.25,16.042 3.584,16.625c103.624,6.5 448.167,51.208 720.917,355.333c6.541,7.292 18.333,0.292 14.833,-8.833Z" style="fill:#91b3fa;fill-rule:nonzero;"/><path d="M12211,9799.67c-21.208,-92.375 -131.375,-277.667 -692.041,-107.959c-3.376,1 -2.459,6.084 0.999,5.709c110.209,-11.459 482.459,-36.75 664.917,118.208c11.75,9.917 29.542,-0.958 26.125,-15.958Z" style="fill:#91b3fa;fill-rule:nonzero;"/><path d="M12103,12611.7c-1.666,-10.25 -1.708,-17.125 -2.375,-24.833l-1.458,-22.792l-2.584,-45.5c-1.708,-30.291 -2.791,-60.625 -3.958,-90.958l-6,-182c-4,-121.333 -4.292,-242.75 -5.083,-364.125c-0.25,-121.375 -0.501,-242.833 1.875,-364.25c2.541,-121.375 5.458,-242.833 10.667,-364.208c5.457,-121.375 11.874,-242.75 20.416,-364c9.375,-121.25 20.125,-242.417 35.125,-363.251l11.708,-90.583l13.792,-90.333c9.75,-60.125 20,-120.208 33.083,-179.875c5.958,-29.875 12.709,-59.667 20.292,-89.291c3.792,-14.792 7.25,-29.625 11.292,-44.376l12.75,-44.042c16.5,-58.833 37.583,-116.583 62.375,-172.457l14.458,5.874c-18.417,57.417 -35.084,115.084 -47.208,174.167l-9.417,44.167c-2.875,14.75 -5.25,29.666 -7.916,44.5l-8.084,44.416l-7.042,44.708c-4.666,29.792 -9.333,59.542 -13.041,89.501c-3.875,29.916 -8.625,59.666 -11.792,89.75c-7.208,59.916 -13.542,119.958 -19.833,180.042c-23.126,240.541 -39.917,481.958 -51.834,723.791c-11.75,241.833 -19.833,483.958 -26.041,726.208c-3.25,121.125 -4.125,242.292 -6.667,363.459l-2.209,181.791l-0.583,90.917l-0.166,45.417l0.25,43.25l-14.792,4.916Z" style="fill:#91b3fa;fill-rule:nonzero;"/><path d="M11402.5,10244.6c-146.083,-238.458 -645.958,-950.458 -1216.29,-590.125c-8.417,5.292 -4.458,19.917 5.375,20.042c141.5,1.875 673.292,46.917 1196.71,583.417c8.501,8.75 20.709,-2.709 14.209,-13.334Z" style="fill:#91b3fa;fill-rule:nonzero;"/><path d="M11400.3,10261.7c-167.084,-119.626 -689.959,-606.417 -1188.25,-241.084c-5.458,4 -2.333,13.75 4.333,13.292c138.667,-10.25 830.209,-45.125 1183.71,240.708c9.333,7.583 9.958,-5.958 0.209,-12.916Z" style="fill:#91b3fa;fill-rule:nonzero;"/><path d="M11374.8,10199.9c-50.708,-191.25 -269.791,-908 -719.583,-977.458c-3.292,-0.5 -5.167,3.916 -2.708,6.499c66.166,70.251 549.5,590.501 715.958,973.418c1.833,4.249 7.542,2.083 6.333,-2.459Z" style="fill:#91b3fa;fill-rule:nonzero;"/><path d="M11459.7,10413.8c4.166,1.542 6.707,-4.5 3.083,-7.25c-90.334,-68.541 -457.001,-313.708 -818.417,-87.958c-409.459,255.708 328.166,-85.292 815.334,95.208Z" style="fill:#91b3fa;fill-rule:nonzero;"/><path d="M11420.1,10264c1.916,14.667 -16.126,19.958 -21.75,6.333c-91.167,-220.833 -312.876,-835.5 -56.334,-1052.5c303.583,-256.833 -21.292,285.583 78.084,1046.17Z" style="fill:#91b3fa;fill-rule:nonzero;"/><path d="M11399.9,10266.2c21,-150.5 122.417,-624.874 556.124,-463.208c7.334,2.708 7.334,14.292 0.042,16.25c-86.083,23.083 -368.042,121.458 -542.041,452.916c-4.167,7.959 -15.417,3.251 -14.125,-5.958Z" style="fill:#91b3fa;fill-rule:nonzero;"/><path d="M11417.2,10299.6c0.917,-90.625 59.833,-283.417 562.958,-214.75c3,0.417 3.167,5.292 0.167,5.541c-94.833,7.168 -412.917,44.042 -538.25,220.001c-8.042,11.291 -25.041,3.916 -24.875,-10.792Z" style="fill:#91b3fa;fill-rule:nonzero;"/><path d="M12012.1,12658.9l-14.25,-74.792l-15.124,-76.666l-31.043,-153.209l-64.208,-305.958c-21.833,-101.875 -44.374,-203.625 -67.625,-305.167c-22.583,-101.666 -46,-203.166 -70.167,-304.416c-48.666,-202.5 -101.708,-403.834 -159.124,-603.625l-21.875,-74.792l-22.792,-74.5c-15.208,-49.625 -30.667,-99.208 -47.875,-148.125c-34.458,-97.791 -70.167,-195.333 -118.167,-287.042l13.376,-8.041c28.416,44.291 53.958,90.541 76.249,138.083c11.458,23.625 22.833,47.333 32.709,71.625c10.375,24.125 20.374,48.375 29.708,72.875c38.417,97.541 72.625,196.583 103.208,296.667c61.417,200.041 111.5,403 159.084,606.333c23.541,101.75 46.208,203.667 68.166,305.708c21,102.25 41.333,204.625 61.001,307.125c19.583,102.5 38.832,205.084 55.999,308.042l25.583,154.417l12.043,77.375l5.624,38.75l2.667,19.458c0.792,6.625 1.875,12.375 2.334,21.417l-15.501,-1.542Z" style="fill:#91b3fa;fill-rule:nonzero;"/><path d="M11649.8,11644.8l666.209,0c43.666,0 76,65.834 66.166,134.75c-42.625,299.125 -93.708,602.667 -198.25,910.75c-19.292,56.917 -56.042,92.625 -96.125,92.625l-217.417,0c-39.458,0 -75.708,-35.166 -94.416,-91.458c-83.709,-252.083 -164.292,-552.583 -204.084,-893.625c-9.25,-79.375 28.042,-153.042 77.917,-153.042Z" style="fill:url(#_Linear35);"/></g><defs><linearGradient id="_Linear1" x1="0" y1="0" x2="1" y2="0" gradientUnits="userSpaceOnUse" gradientTransform="matrix(-10157.3,-12614.7,12614.7,-10157.3,14958.6,16866.5)"><stop offset="0" style="stop-color:#dae2fd;stop-opacity:1"/><stop offset="1" style="stop-color:#e8effd;stop-opacity:1"/></linearGradient><linearGradient id="_Linear2" x1="0" y1="0" x2="1" y2="0" gradientUnits="userSpaceOnUse" gradientTransform="matrix(-10157.3,-12614.7,12614.7,-10157.3,14958.6,16866.5)"><stop offset="0" style="stop-color:#bdccfb;stop-opacity:1"/><stop offset="1" style="stop-color:#c8d3f9;stop-opacity:1"/></linearGradient><linearGradient id="_Linear3" x1="0" y1="0" x2="1" y2="0" gradientUnits="userSpaceOnUse" gradientTransform="matrix(-10157.3,-12614.7,12614.7,-10157.3,14958.6,16866.5)"><stop offset="0" style="stop-color:#bdccfb;stop-opacity:1"/><stop offset="1" style="stop-color:#c8d3f9;stop-opacity:1"/></linearGradient><linearGradient id="_Linear4" x1="0" y1="0" x2="1" y2="0" gradientUnits="userSpaceOnUse" gradientTransform="matrix(-10157.3,-12614.7,12614.7,-10157.3,14958.6,16866.5)"><stop offset="0" style="stop-color:#bdccfb;stop-opacity:1"/><stop offset="1" style="stop-color:#c8d3f9;stop-opacity:1"/></linearGradient><linearGradient id="_Linear5" x1="0" y1="0" x2="1" y2="0" gradientUnits="userSpaceOnUse" gradientTransform="matrix(-10157.3,-12614.7,12614.7,-10157.3,14958.6,16866.5)"><stop offset="0" style="stop-color:#bdccfb;stop-opacity:1"/><stop offset="1" style="stop-color:#c8d3f9;stop-opacity:1"/></linearGradient><linearGradient id="_Linear6" x1="0" y1="0" x2="1" y2="0" gradientUnits="userSpaceOnUse" gradientTransform="matrix(-10157.3,-12614.7,12614.7,-10157.3,14958.6,16866.5)"><stop offset="0" style="stop-color:#bdccfb;stop-opacity:1"/><stop offset="1" style="stop-color:#c8d3f9;stop-opacity:1"/></linearGradient><linearGradient id="_Linear7" x1="0" y1="0" x2="1" y2="0" gradientUnits="userSpaceOnUse" gradientTransform="matrix(-10157.3,-12614.7,12614.7,-10157.3,14958.6,16866.5)"><stop offset="0" style="stop-color:#bdccfb;stop-opacity:1"/><stop offset="1" style="stop-color:#c8d3f9;stop-opacity:1"/></linearGradient><linearGradient id="_Linear8" x1="0" y1="0" x2="1" y2="0" gradientUnits="userSpaceOnUse" gradientTransform="matrix(-10157.3,-12614.7,12614.7,-10157.3,14958.6,16866.5)"><stop offset="0" style="stop-color:#bdccfb;stop-opacity:1"/><stop offset="1" style="stop-color:#c8d3f9;stop-opacity:1"/></linearGradient><linearGradient id="_Linear10" x1="0" y1="0" x2="1" y2="0" gradientUnits="userSpaceOnUse" gradientTransform="matrix(4663.62,-4129.82,4129.82,4663.62,3560.85,13624.6)"><stop offset="0" style="stop-color:#4f52ff;stop-opacity:1"/><stop offset="1" style="stop-color:#3f42e2;stop-opacity:1"/></linearGradient><linearGradient id="_Linear11" x1="0" y1="0" x2="1" y2="0" gradientUnits="userSpaceOnUse" gradientTransform="matrix(1697,0,0,1697,7748.75,10508.6)"><stop offset="0" style="stop-color:#fdbaba;stop-opacity:1"/><stop offset="1" style="stop-color:#ff918e;stop-opacity:1"/></linearGradient><linearGradient id="_Linear12" x1="0" y1="0" x2="1" y2="0" gradientUnits="userSpaceOnUse" gradientTransform="matrix(1972.34,-1142.82,1142.82,1972.34,5920.58,8765.25)"><stop offset="0" style="stop-color:#fdbaba;stop-opacity:1"/><stop offset="1" style="stop-color:#ff918e;stop-opacity:1"/></linearGradient><linearGradient id="_Linear13" x1="0" y1="0" x2="1" y2="0" gradientUnits="userSpaceOnUse" gradientTransform="matrix(-11.8534,3340.65,-3340.65,-11.8534,7655.79,6388.75)"><stop offset="0" style="stop-color:#fdbaba;stop-opacity:1"/><stop offset="1" style="stop-color:#ff918e;stop-opacity:1"/></linearGradient><linearGradient id="_Linear14" x1="0" y1="0" x2="1" y2="0" gradientUnits="userSpaceOnUse" gradientTransform="matrix(1924.71,-1444.2,1444.2,1924.71,6806,7819.58)"><stop offset="0" style="stop-color:#08005d;stop-opacity:1"/><stop offset="1" style="stop-color:#1a0e90;stop-opacity:1"/></linearGradient><linearGradient id="_Linear15" x1="0" y1="0" x2="1" y2="0" gradientUnits="userSpaceOnUse" gradientTransform="matrix(297.464,-2295.68,2295.68,297.464,6562.54,9847.58)"><stop offset="0" style="stop-color:#fdbaba;stop-opacity:1"/><stop offset="1" style="stop-color:#ff918e;stop-opacity:1"/></linearGradient><linearGradient id="_Linear16" x1="0" y1="0" x2="1" y2="0" gradientUnits="userSpaceOnUse" gradientTransform="matrix(4663.62,-4129.82,4129.82,4663.62,2385.48,12297.3)"><stop offset="0" style="stop-color:#4f52ff;stop-opacity:1"/><stop offset="1" style="stop-color:#3f42e2;stop-opacity:1"/></linearGradient><linearGradient id="_Linear17" x1="0" y1="0" x2="1" y2="0" gradientUnits="userSpaceOnUse" gradientTransform="matrix(-337.129,8203.46,-8203.46,-337.129,4788.33,-115.397)"><stop offset="0" style="stop-color:#08005d;stop-opacity:1"/><stop offset="1" style="stop-color:#1a0e90;stop-opacity:1"/></linearGradient><linearGradient id="_Linear18" x1="0" y1="0" x2="1" y2="0" gradientUnits="userSpaceOnUse" gradientTransform="matrix(77.2725,-1076.42,1076.42,77.2725,6062.96,13075.2)"><stop offset="0" style="stop-color:#fdbaba;stop-opacity:1"/><stop offset="1" style="stop-color:#ff918e;stop-opacity:1"/></linearGradient><linearGradient id="_Linear20" x1="0" y1="0" x2="1" y2="0" gradientUnits="userSpaceOnUse" gradientTransform="matrix(3397.71,0,0,3397.71,7297.38,16924.8)"><stop offset="0" style="stop-color:#9cfffb;stop-opacity:1"/><stop offset="1" style="stop-color:#9afff9;stop-opacity:1"/></linearGradient><linearGradient id="_Linear22" x1="0" y1="0" x2="1" y2="0" gradientUnits="userSpaceOnUse" gradientTransform="matrix(3397.71,0,0,3397.71,7689.75,16924.8)"><stop offset="0" style="stop-color:#9cfffb;stop-opacity:1"/><stop offset="1" style="stop-color:#9afff9;stop-opacity:1"/></linearGradient><linearGradient id="_Linear23" x1="0" y1="0" x2="1" y2="0" gradientUnits="userSpaceOnUse" gradientTransform="matrix(9688.54,-11456.8,11456.8,9688.54,3741.68,19495.8)"><stop offset="0" style="stop-color:#08005d;stop-opacity:1"/><stop offset="1" style="stop-color:#1a0e90;stop-opacity:1"/></linearGradient><linearGradient id="_Linear24" x1="0" y1="0" x2="1" y2="0" gradientUnits="userSpaceOnUse" gradientTransform="matrix(1717.54,-1586.85,1586.85,1717.54,11419.2,4666.83)"><stop offset="0" style="stop-color:#08005d;stop-opacity:1"/><stop offset="1" style="stop-color:#1a0e90;stop-opacity:1"/></linearGradient><linearGradient id="_Linear25" x1="0" y1="0" x2="1" y2="0" gradientUnits="userSpaceOnUse" gradientTransform="matrix(2444.19,-5590.71,5590.71,2444.19,10437.3,6399.46)"><stop offset="0" style="stop-color:#4f52ff;stop-opacity:1"/><stop offset="1" style="stop-color:#3f42e2;stop-opacity:1"/></linearGradient><linearGradient id="_Linear26" x1="0" y1="0" x2="1" y2="0" gradientUnits="userSpaceOnUse" gradientTransform="matrix(2444.18,-5590.71,5590.71,2444.18,10405.5,6385.5)"><stop offset="0" style="stop-color:#4f52ff;stop-opacity:1"/><stop offset="1" style="stop-color:#3f42e2;stop-opacity:1"/></linearGradient><linearGradient id="_Linear27" x1="0" y1="0" x2="1" y2="0" gradientUnits="userSpaceOnUse" gradientTransform="matrix(2444.18,-5590.71,5590.71,2444.18,10356.1,6363.92)"><stop offset="0" style="stop-color:#4f52ff;stop-opacity:1"/><stop offset="1" style="stop-color:#3f42e2;stop-opacity:1"/></linearGradient><linearGradient id="_Linear28" x1="0" y1="0" x2="1" y2="0" gradientUnits="userSpaceOnUse" gradientTransform="matrix(2444.18,-5590.71,5590.71,2444.18,10332.2,6353.5)"><stop offset="0" style="stop-color:#4f52ff;stop-opacity:1"/><stop offset="1" style="stop-color:#3f42e2;stop-opacity:1"/></linearGradient><linearGradient id="_Linear29" x1="0" y1="0" x2="1" y2="0" gradientUnits="userSpaceOnUse" gradientTransform="matrix(-147.489,3012.93,-3012.93,-147.489,10939.8,2659.5)"><stop offset="0" style="stop-color:#ff918e;stop-opacity:1"/><stop offset="1" style="stop-color:#fd7062;stop-opacity:1"/></linearGradient><linearGradient id="_Linear30" x1="0" y1="0" x2="1" y2="0" gradientUnits="userSpaceOnUse" gradientTransform="matrix(-3560.74,3118.28,-3118.28,-3560.74,13752,1826.65)"><stop offset="0" style="stop-color:#e1463d;stop-opacity:1"/><stop offset="1" style="stop-color:#e86059;stop-opacity:1"/></linearGradient><linearGradient id="_Linear31" x1="0" y1="0" x2="1" y2="0" gradientUnits="userSpaceOnUse" gradientTransform="matrix(-3560.74,3118.28,-3118.28,-3560.74,13551.1,1597.24)"><stop offset="0" style="stop-color:#e1463d;stop-opacity:1"/><stop offset="1" style="stop-color:#e86059;stop-opacity:1"/></linearGradient><linearGradient id="_Linear32" x1="0" y1="0" x2="1" y2="0" gradientUnits="userSpaceOnUse" gradientTransform="matrix(-147.489,3012.93,-3012.93,-147.489,10939.8,2659.5)"><stop offset="0" style="stop-color:#ffe8e6;stop-opacity:1"/><stop offset="1" style="stop-color:#ffe1dd;stop-opacity:1"/></linearGradient><linearGradient id="_Linear33" x1="0" y1="0" x2="1" y2="0" gradientUnits="userSpaceOnUse" gradientTransform="matrix(-147.489,3012.93,-3012.93,-147.489,10939.8,2659.5)"><stop offset="0" style="stop-color:#ffe8e6;stop-opacity:1"/><stop offset="1" style="stop-color:#ffe1dd;stop-opacity:1"/></linearGradient><linearGradient id="_Linear34" x1="0" y1="0" x2="1" y2="0" gradientUnits="userSpaceOnUse" gradientTransform="matrix(-147.489,3012.93,-3012.93,-147.489,10939.8,2659.5)"><stop offset="0" style="stop-color:#ffe8e6;stop-opacity:1"/><stop offset="1" style="stop-color:#ffe1dd;stop-opacity:1"/></linearGradient><linearGradient id="_Linear35" x1="0" y1="0" x2="1" y2="0" gradientUnits="userSpaceOnUse" gradientTransform="matrix(-247.324,-1304.07,1304.07,-247.324,12329.4,13648.9)"><stop offset="0" style="stop-color:#4f52ff;stop-opacity:1"/><stop offset="1" style="stop-color:#3f42e2;stop-opacity:1"/></linearGradient></defs></svg>